<svg viewBox="0 0 1140 240" xmlns="http://www.w3.org/2000/svg" xmlns:xlink="http://www.w3.org/1999/xlink"><clipPath id="a" transform="translate(-4.5 -4.5)"><path d="m123 125.26c-2.63 1.83-1.35 7 1.89 7.64a3 3 0 0 0 3.37-2.43.22.22 0 0 1 0-.08c.61-2.83-1.56-5.53-3.72-5.53a2.2 2.2 0 0 0 -1.55.4"/></clipPath><linearGradient id="b" gradientTransform="matrix(59.91 0 0 -59.91 -10084.23 -27090.85)" gradientUnits="userSpaceOnUse" x1="169.17" x2="171.12" y1="-454.27" y2="-454.27"><stop offset="0" stop-color="#009dc6"/><stop offset=".27" stop-color="#058cbc"/><stop offset=".8" stop-color="#045ea0"/><stop offset="1" stop-color="#004a93"/></linearGradient><clipPath id="c" transform="translate(-4.5 -4.5)"><path d="m97.24 71.4c-3.72 2.63-.54 9.53 6.36 10.68 2.76.33 4.88-.81 5.33-2.85 1-4.11-4.45-8.64-8.86-8.64a5.17 5.17 0 0 0 -2.83.81"/></clipPath><linearGradient id="d" gradientTransform="matrix(81.23 0 0 -81.23 -14016.25 -37227.71)" x1="172.34" x2="174.19" xlink:href="#b" y1="-459.18" y2="-459.18"/><clipPath id="e" transform="translate(-4.5 -4.5)"><path d="m78.11 74.77c-3.51 3.32-.67 9.78 6.08 10.35 3.46.2 6.22-1.76 6.36-4.66.26-4.06-4.13-7.24-8.18-7.24a5.6 5.6 0 0 0 -4.26 1.55"/></clipPath><linearGradient id="f" gradientTransform="matrix(72.58 0 0 -72.58 -12433.68 -33122.97)" x1="171.18" x2="173.06" xlink:href="#b" y1="-457.39" y2="-457.39"/><clipPath id="g" transform="translate(-4.5 -4.5)"><path d="m140.56 114.38c-4.26 2.1-2.94 12.64 3.11 14.87 2 .54 3.64-.47 4.46-2.71 2-5.2-2-12.5-6.09-12.5a2.49 2.49 0 0 0 -1.48.34"/></clipPath><linearGradient id="h" gradientTransform="matrix(56.78 0 0 -56.78 -9505.89 -25613.35)" x1="168.52" x2="170.35" xlink:href="#b" y1="-453.17" y2="-453.17"/><clipPath id="i" transform="translate(-4.5 -4.5)"><path d="m133.06 93.36c-4.12 2.3-.54 11.63 5.06 13.31a3 3 0 0 0 3.9-1.79c0-.1.07-.2.09-.3 1.49-4.58-3.58-11.58-7.57-11.58a3.77 3.77 0 0 0 -1.48.34"/></clipPath><linearGradient id="j" gradientTransform="matrix(71.88 0 0 -71.88 -12288.59 -32781.42)" x1="171.22" x2="173.12" xlink:href="#b" y1="-457.39" y2="-457.39"/><clipPath id="k" transform="translate(-4.5 -4.5)"><path d="m116.91 78.16c-3.71 2.56.68 10.4 6.43 11.62 2.43.47 4.11-.54 4.46-2.64.67-4.39-4.67-9.59-8.73-9.59a3.87 3.87 0 0 0 -2.16.61"/></clipPath><linearGradient id="l" gradientTransform="matrix(82.57 0 0 -82.57 -14262.03 -37855.84)" x1="172.53" x2="174.43" xlink:href="#b" y1="-459.43" y2="-459.43"/><clipPath id="m" transform="translate(-4.5 -4.5)"><path d="m88.56 51.8c-4.33 2.93.41 11.83 10.88 13.52 3.72.4 6.42-.74 6.84-3 1.09-5.08-8-11.42-14.25-11.42a6 6 0 0 0 -3.52 1"/></clipPath><linearGradient id="n" gradientTransform="matrix(93.7 0 0 -93.7 -16318.65 -43145.89)" x1="173.56" x2="175.41" xlink:href="#b" y1="-461.04" y2="-461.04"/><clipPath id="o" transform="translate(-4.5 -4.5)"><path d="m61.49 56.77c-4.73 4.67-.81 12.44 8.8 13 5.2.2 9.47-2.7 9.67-6.62.26-5.27-5.68-9-11.36-9a9.59 9.59 0 0 0 -7.16 2.64"/></clipPath><linearGradient id="p" gradientTransform="matrix(73.2 0 0 -73.2 -12553.53 -33428.12000000001)" x1="171.13" x2="173.03" xlink:href="#b" y1="-457.45" y2="-457.45"/><clipPath id="q" transform="translate(-4.5 -4.5)"><path d="m142.34 82.45c-4.46 1.83 1.41 17.31 9.59 20.82.81.34 2.71.81 3.59-1 2.56-5.27-6.9-20-12.17-20a1.7 1.7 0 0 0 -1 .13"/></clipPath><linearGradient id="r" gradientTransform="matrix(82.94 0 0 -82.94 -14320.16 -38029.2)" x1="172.62" x2="174.5" xlink:href="#b" y1="-459.58" y2="-459.58"/><clipPath id="s" transform="translate(-4.5 -4.5)"><path d="m116.64 60.32c-4.4 2.23 3.17 14.13 12.1 16.43 2.36.54 4 0 4.45-1.49 1.49-4.89-9.32-15.27-15-15.27a4 4 0 0 0 -1.55.33"/></clipPath><linearGradient id="t" gradientTransform="matrix(113.56 0 0 -113.56 -19963.75 -52552.97)" x1="175.07" x2="176.93" xlink:href="#b" y1="-463.34" y2="-463.34"/><clipPath id="u" transform="translate(-4.5 -4.5)"><path d="m102.65 90.32c-2.23 1.63-.75 5.81 3 6.42a2.78 2.78 0 0 0 3.24-2c.54-2.5-2.16-4.89-4.52-4.89a2.85 2.85 0 0 0 -1.76.54"/></clipPath><linearGradient id="v" gradientTransform="matrix(72.98 0 0 -72.98 -12498.8 -33304.89)" x1="171.38" x2="173.2" xlink:href="#b" y1="-457.58" y2="-457.58"/><clipPath id="w" transform="translate(-4.5 -4.5)"><path d="m92.11 92c-2.23 1.76-.82 6 2.89 6.36a3 3 0 0 0 3.5-2.5v-.12c.2-2.44-2.16-4.39-4.39-4.39a3.33 3.33 0 0 0 -2.09.67"/></clipPath><linearGradient id="x" gradientTransform="matrix(70.06 0 0 -70.06 -11962.29 -31920.85)" x1="170.9" x2="172.74" xlink:href="#b" y1="-456.91" y2="-456.91"/><clipPath id="y" transform="translate(-4.5 -4.5)"><path d="m125.55 114.18c-2.44 1.49-1.49 6.62 2.1 7.57a2.59 2.59 0 0 0 3-2.06v-.1c.68-2.85-1.62-5.75-3.85-5.75a2.23 2.23 0 0 0 -1.29.34"/></clipPath><linearGradient id="z" gradientTransform="matrix(62.28 0 0 -62.28 -10521.44 -28220.93)" x1="169.67" x2="171.52" xlink:href="#b" y1="-454.95" y2="-454.95"/><clipPath id="A" transform="translate(-4.5 -4.5)"><path d="m122 103c-2.23 1.41-1 6.28 2.56 7.09a2.42 2.42 0 0 0 2.93-1.79c.69-2.7-1.81-5.61-4.11-5.61a2 2 0 0 0 -1.38.31"/></clipPath><linearGradient id="B" gradientTransform="matrix(67.86 0 0 -67.86 -11547.19 -30874.18)" x1="170.54" x2="172.49" xlink:href="#b" y1="-456.47" y2="-456.47"/><clipPath id="C" transform="translate(-4.5 -4.5)"><path d="m113.6 94.24c-2.44 1.63-.48 6.09 2.93 6.69a2.51 2.51 0 0 0 3-1.83v-.1c.47-2.49-2.16-5.2-4.46-5.2a2.87 2.87 0 0 0 -1.48.41"/></clipPath><linearGradient id="D" gradientTransform="matrix(73.12 0 0 -73.12 -12521.25 -33369.25)" x1="171.41" x2="173.27" xlink:href="#b" y1="-457.64" y2="-457.64"/><clipPath id="E" transform="translate(-4.5 -4.5)"><path d="m156.57 115.39c-5.27 2-3.85 20.48 3.59 24.74 1.82.88 3.51 0 4.6-2.29 3.37-7.51-1.69-22.65-7.1-22.65a3.14 3.14 0 0 0 -1.09.2"/></clipPath><linearGradient id="F" gradientTransform="matrix(44.19 0 0 -44.19 -7193.21 -19639.72)" x1="164.75" x2="166.62" xlink:href="#b" y1="-447.23" y2="-447.23"/><clipPath id="G" transform="translate(-4.5 -4.5)"><path d="m115.28 132.47c-2.7 1.69-2.09 6.84 1.69 7.57a3.3 3.3 0 0 0 3.72-2.77c.61-2.78-1.49-5.27-3.72-5.27a3.06 3.06 0 0 0 -1.69.47"/></clipPath><linearGradient id="H" gradientTransform="matrix(59.96 0 0 -59.96 -10087.55 -27113.82)" x1="169.21" x2="171.11" xlink:href="#b" y1="-454.4" y2="-454.4"/><clipPath id="I" transform="translate(-4.5 -4.5)"><path d="m100.68 152.43c-5 3.58-4.18 12.57 2.71 13.79 3.72.47 7.29-2.5 7.91-6.56a7.12 7.12 0 0 0 -5.6-8.38 6.75 6.75 0 0 0 -1.1-.14 6.68 6.68 0 0 0 -3.91 1.29"/></clipPath><linearGradient id="J" gradientTransform="matrix(58.36 0 0 -58.36 -9792.41 -26340.56)" x1="168.97" x2="170.83" xlink:href="#b" y1="-454" y2="-454"/><clipPath id="K" transform="translate(-4.5 -4.5)"><path d="m124.34 148.17a5.44 5.44 0 0 0 -2.93.88c-4.89 3-4.89 12.84 1.49 14.33 3.11.6 6.28-1.89 7.17-5.74 1.23-5.15-1.88-9.47-5.73-9.47z"/></clipPath><linearGradient id="L" gradientTransform="matrix(54.14 0 0 -54.14 -9013.42 -24344.17)" x1="167.94" x2="169.82" xlink:href="#b" y1="-452.45" y2="-452.45"/><clipPath id="M" transform="translate(-4.5 -4.5)"><path d="m136.1 135.4c-5 3-3.85 13.25 1.69 14.79 2.57.62 5-1.21 6-4.52 1.48-5.47-1.7-10.94-5.41-10.94a4 4 0 0 0 -2.23.67"/></clipPath><linearGradient id="N" gradientTransform="matrix(52.29 0 0 -52.29 -8676.67 -23473.72)" x1="167.41" x2="169.29" xlink:href="#b" y1="-451.56" y2="-451.56"/><clipPath id="O" transform="translate(-4.5 -4.5)"><path d="m64.11 86.94c-4.65 4.06-1.27 11.22 5.35 11.52 3.78.07 6.84-2.44 7.17-5.74.4-4.33-3.58-7.5-7.71-7.5a7.13 7.13 0 0 0 -4.81 1.72"/></clipPath><linearGradient id="P" gradientTransform="matrix(66.67 0 0 -66.67 -11342.27 -30317.88)" x1="170.21" x2="172.09" xlink:href="#b" y1="-456.06" y2="-456.06"/><clipPath id="Q" transform="translate(-4.5 -4.5)"><path d="m58.45 106.74c-4.39 4.26-2 12.44 5.34 12.85a7.51 7.51 0 1 0 -5.34-12.85"/></clipPath><linearGradient id="R" gradientTransform="matrix(62.25 0 0 -62.25 -10527.01 -28210.81)" x1="169.45" x2="171.36" xlink:href="#b" y1="-454.92" y2="-454.92"/><clipPath id="S" transform="translate(-4.5 -4.5)"><path d="m64.6 128.37c-4.67 4.19-2.5 13.18 4.89 13.51a7.43 7.43 0 0 0 7.51-7 7.77 7.77 0 0 0 -7.06-8.41 5.61 5.61 0 0 0 -.58 0 7.39 7.39 0 0 0 -4.73 1.89"/></clipPath><linearGradient id="T" gradientTransform="matrix(61.18 0 0 -61.18 -10324.08 -27690.14)" x1="169.38" x2="171.26" xlink:href="#b" y1="-454.72" y2="-454.72"/><clipPath id="U" transform="translate(-4.5 -4.5)"><path d="m80.14 145c-5.27 4.32-2.7 13.12 4 13.65a7.64 7.64 0 0 0 .51-15.27 7.18 7.18 0 0 0 -4.47 1.62"/></clipPath><linearGradient id="V" gradientTransform="matrix(60.08 0 0 -60.08 -10111.55 -27161.43)" x1="169.25" x2="171.15" xlink:href="#b" y1="-454.53" y2="-454.53"/><clipPath id="W" transform="translate(-4.5 -4.5)"><path d="m94.87 175.81c-7.5 5.41-7.57 19.34 2 21.09 5.61.67 11.62-4.53 12.91-11.15 1.35-7-3.17-12-8.8-12a10.15 10.15 0 0 0 -6.15 2.09"/></clipPath><linearGradient id="X" gradientTransform="matrix(54.14 0 0 -54.14 -9010.82 -24326.85)" x1="168.04" x2="169.91" xlink:href="#b" y1="-452.68" y2="-452.68"/><clipPath id="Y" transform="translate(-4.5 -4.5)"><path d="m126.69 170.61c-8.39 4.89-9.6 19.73-1.9 22.1 4.67 1.21 10.55-3.85 12.44-10.68 2-7.1-1.36-12.71-6.28-12.71a8.13 8.13 0 0 0 -4.26 1.29"/></clipPath><linearGradient id="Z" gradientTransform="matrix(47.9 0 0 -47.9 -7863.37 -21371.67)" x1="166.22" x2="168.11" xlink:href="#b" y1="-449.87" y2="-449.87"/><clipPath id="aa" transform="translate(-4.5 -4.5)"><path d="m150.83 149.05c-7.63 3.11-9.12 21.15-2 24.19 2.93 1.09 6.15-1.14 8.18-5.53 3.91-8.52 1.08-19-4.4-19a3.59 3.59 0 0 0 -1.82.34"/></clipPath><linearGradient id="ab" gradientTransform="matrix(41.53 0 0 -41.53 -6698.81 -18360.94)" x1="163.76" x2="165.67" xlink:href="#b" y1="-445.89" y2="-445.89"/><clipPath id="ac" transform="translate(-4.5 -4.5)"><path d="m38.51 74.77c-6.42 6.69-1.83 16 7.82 15.76 6.85-.28 12.24-5.41 11.83-11.23-.41-5.3-5.16-8.45-10.34-8.45a13.36 13.36 0 0 0 -9.26 3.91"/></clipPath><linearGradient id="ad" gradientTransform="matrix(63.52 0 0 -63.52 -10776.38 -28828.06)" x1="169.53" x2="171.4" xlink:href="#b" y1="-455.04" y2="-455.04"/><clipPath id="ae" transform="translate(-4.5 -4.5)"><path d="m28.51 104.76c-7.1 7.43-3.58 20.47 8.1 20.4a13.14 13.14 0 0 0 12-13 11 11 0 0 0 -10.61-11.39h-.5a12.24 12.24 0 0 0 -9 4"/></clipPath><linearGradient id="af" gradientTransform="matrix(58.99 0 0 -58.99 -9934.21 -26665.35)" x1="168.67" x2="170.52" xlink:href="#b" y1="-453.87" y2="-453.87"/><clipPath id="ag" transform="translate(-4.5 -4.5)"><path d="m38.31 139.46c-6.85 7.2-2.84 21.39 8.65 21.39 6.29-.2 11.49-6.15 11.21-13a12 12 0 0 0 -11.73-12 11.62 11.62 0 0 0 -8.12 3.65"/></clipPath><linearGradient id="ah" gradientTransform="matrix(59.54 0 0 -59.54 -10020.66 -26906.78)" x1="169.03" x2="170.89" xlink:href="#b" y1="-454.33" y2="-454.33"/><clipPath id="ai" transform="translate(-4.5 -4.5)"><path d="m63.51 165c-7.5 6.84-3.3 20.68 6.36 21.08 6.08.07 11.35-5.46 11.56-12.16a11.1 11.1 0 0 0 -10.43-11.72h-.38a10.48 10.48 0 0 0 -7.1 2.84"/></clipPath><linearGradient id="aj" gradientTransform="matrix(58.27 0 0 -58.27 -9776.95 -26289.53)" x1="168.93" x2="170.81" xlink:href="#b" y1="-454.08" y2="-454.08"/><clipPath id="ak" transform="translate(-4.5 -4.5)"><path d="m104.2 134.31c-2.64 1.9-1.83 6.76 2 7.45a3.72 3.72 0 0 0 4-3.18 4.23 4.23 0 0 0 -3.44-4.89l-.46-.06a3.37 3.37 0 0 0 -2 .68"/></clipPath><linearGradient id="al" gradientTransform="matrix(61 0 0 -61 -10279.68 -27605.7)" x1="169.45" x2="171.28" xlink:href="#b" y1="-454.74" y2="-454.74"/><clipPath id="am" transform="translate(-4.5 -4.5)"><path d="m84.4 99c-2.37 2.18-.54 6.22 2.93 6.5a3.39 3.39 0 0 0 3.72-2.94 4.33 4.33 0 0 0 -4.25-4.36h-.07a3.44 3.44 0 0 0 -2.37.87"/></clipPath><linearGradient id="an" gradientTransform="matrix(67.43 0 0 -67.43 -11476.61 -30671.59)" x1="170.43" x2="172.35" xlink:href="#b" y1="-456.31" y2="-456.31"/><clipPath id="ao" transform="translate(-4.5 -4.5)"><path d="m82 109.45c-2.58 2-1.49 6.62 2.57 7.1a3.67 3.67 0 0 0 3.85-3.32 4.31 4.31 0 0 0 -4.08-4.52h-.18a3.66 3.66 0 0 0 -2.16.74"/></clipPath><linearGradient id="ap" gradientTransform="matrix(64.34 0 0 -64.34 -10908.14 -29199.9)" x1="169.92" x2="171.84" xlink:href="#b" y1="-455.52" y2="-455.52"/><clipPath id="aq" transform="translate(-4.5 -4.5)"><path d="m85 121.14a4.22 4.22 0 0 0 2.5 7.23 3.7 3.7 0 0 0 3.91-3.44 4.23 4.23 0 0 0 -3.83-4.59h-.3a3 3 0 0 0 -2.29.81"/></clipPath><linearGradient id="ar" gradientTransform="matrix(62.26 0 0 -62.26 -10520.71 -28208.67)" x1="169.62" x2="171.42" xlink:href="#b" y1="-455" y2="-455"/><clipPath id="as" transform="translate(-4.5 -4.5)"><path d="m93.18 130.2a4.18 4.18 0 0 0 -.41 5.89 4.1 4.1 0 0 0 2.63 1.4 3.6 3.6 0 0 0 3.91-3.18 4.2 4.2 0 0 0 -3.5-4.8 3.23 3.23 0 0 0 -2.62.7"/></clipPath><linearGradient id="at" gradientTransform="matrix(61.8 0 0 -61.8 -10434.2 -27983.94)" x1="169.56" x2="171.48" xlink:href="#b" y1="-454.91" y2="-454.91"/><rect fill="#fff" height="239" rx="10" stroke="#fff" stroke-miterlimit="10" width="1139" x=".5" y=".5"/><g transform="translate(-4.5 -4.5)"><path d="m196.82 89.46c.15 0 .22-.07.22-.2v-25.26l-3.45-.07c0-1 .08-2.11.08-3.06h22.18c.2 2.7.33 5.54.48 8.41-1 .07-2.34.28-3.5.43l-.83-4.35c-.07-.5-.34-.79-1.1-.86-1-.08-3.56-.3-6.71-.3h-1.09l-.07 11.49c2.26-.06 4.18-.06 6.3-.06.61 0 .81-.37 1-1l.27-2.3c1.15 0 2.4 0 3.41.07-.07 1.58-.07 3.38-.07 5.1v4.89c-1.09.07-2.25.07-3.41.07l-.2-2.44c-.08-.8-.35-1-1-1-1.85-.07-3.91-.07-6.16-.07l-.07 9.46c0 .88.2 1 2.79 1a37.62 37.62 0 0 0 6.36-.33 1.39 1.39 0 0 0 1-1l1.55-4.23c1.23.2 2.52.4 3.66.67-.58 2.66-1.22 5.37-1.86 8.11-2.51-.07-9.31-.07-16.39-.07h-6.54c0-1 0-2 .07-3.06z" fill="#585857"/><path d="m236.9 90.36c-4.18 2.37-5.13 2.5-7.09 2.5-3.17 0-6.42-3.58-6.42-6.68 0-4.06.07-8 .07-11.37l-2.64-.06c0-1 .07-2 .07-3 1.82 0 7.37-.26 7.91-.26.07 0 .13.14.13.21-.06 3.57-.13 7.63-.13 11.48 0 1.76-.07 3.31.67 4.46a2.94 2.94 0 0 0 2.71 1.49 8.38 8.38 0 0 0 4.6-1.83c.05-3.71 0-9 0-12.37l-2.85-.07c0-1 .07-2.09.07-3 1.83-.07 7.57-.12 8.24-.12.07 0 .07 0 .07.19 0 5.34-.07 11.35-.07 17 0 .41.07.54.28.54l3-.07c0 1 0 2-.07 2.94a27.25 27.25 0 0 1 -6.55.8 8 8 0 0 1 -1.83-2.49h-.21z" fill="#585857"/><path d="m247.87 75.43c0-1 0-2 .07-2.93 2.1-.27 7.78-1.28 8-1.28s.06.06.06.13c.07 1.63.21 4 .27 6.36l.28.06c2.93-5.61 4.32-6.62 6.55-6.62a9.11 9.11 0 0 1 3.18.6 10.3 10.3 0 0 1 -1.76 5.08 16.24 16.24 0 0 0 -2.77-.41 2.18 2.18 0 0 0 -1.49.6 11.81 11.81 0 0 0 -2.93 4.13 9.56 9.56 0 0 0 -.81 4.25c-.07 1.29-.07 2.94-.07 4.13l4.32.14c0 .88 0 2-.07 2.93h-6.62c-1.82 0-4.05.07-5.8.07 0-1 0-2 .05-2.93l2.57-.08c.06-.07.2-.07.2-.21v-13.89z" fill="#585857"/><path d="m278 93a10.68 10.68 0 0 1 -7.09-2.38 10.16 10.16 0 0 1 -3.38-8.11 11.38 11.38 0 0 1 4.32-9.12 11.85 11.85 0 0 1 7.24-2.3 10.62 10.62 0 0 1 6.35 1.83c2.43 1.75 4.05 4.59 4.05 8.64a11 11 0 0 1 -10.49 11.44 6.28 6.28 0 0 1 -1 0zm.48-2.93a4 4 0 0 0 3.24-1.41c1.29-1.49 1.76-3.58 1.76-6.85 0-2.83-.47-4.8-1.49-6.08a3.92 3.92 0 0 0 -3.35-1.73 4.08 4.08 0 0 0 -3.25 1.49c-1.22 1.42-1.83 3.59-1.83 6.56 0 3.3.61 5.27 1.83 6.62a3.72 3.72 0 0 0 3.11 1.44z" fill="#585857"/><path d="m299.91 74c4.81-2.56 5.48-2.7 7.5-2.7 4.6-.07 7.78 4.8 7.71 9.4a15.85 15.85 0 0 1 -1.28 6.22 11.44 11.44 0 0 1 -3.78 4.68 11 11 0 0 1 -10 .55l-.27.07v8.44l4.26.07c0 1 0 2-.07 2.93-2 0-4.59 0-7 .07-1.76 0-3.85 0-5.48.06 0-1 0-2 .07-2.94l2.63-.2c.07 0 .14-.13.14-.27l.07-25h-3.47c0-1 .07-2 .07-2.84 2-.27 7.75-1.44 8.06-1.44.07 0 .07.07.07.14.14.81.28 1.76.4 2.57zm9.64 8a9.71 9.71 0 0 0 -1-4.8 3.82 3.82 0 0 0 -3.24-2 9.14 9.14 0 0 0 -5.14 1.89c-.07 3.25-.07 7.36-.07 10.47 0 1 2.3 2.17 4.13 2.17a4.58 4.58 0 0 0 3.51-1.48c1.1-1.25 1.78-3.25 1.78-6.25z" fill="#585857"/><path d="m319.12 83.09c0-6.56 4.46-11.89 11.15-11.89a7.52 7.52 0 0 1 6.08 2.5 10.66 10.66 0 0 1 2.16 6.84 5.18 5.18 0 0 1 -2.09 2.23c-2.16.14-8 .14-11.63.14a6.71 6.71 0 0 0 1.49 4.79 5.38 5.38 0 0 0 4.46 1.62 19 19 0 0 0 6.56-1.48 24.63 24.63 0 0 1 .74 2.93 22.94 22.94 0 0 1 -8.45 2.16c-6.42.07-10.47-3.64-10.47-9.86zm10.4-8.92a3.65 3.65 0 0 0 -3 1.42 7.26 7.26 0 0 0 -1.59 4.41c2.36 0 5.61-.06 7.82-.13a.5.5 0 0 0 .54-.46v-.11a7.94 7.94 0 0 0 -1-3.65 3.41 3.41 0 0 0 -2.79-1.48z" fill="#585857"/><path d="m354.53 91.1c-3.31 1.72-5.34 2.19-7.09 2.19-2.51 0-5.87-2.25-5.87-5.2 0-2.75 3-7 10.07-7h2.94c.13-4.06-1-5.87-3.58-5.87-1.9 0-4.2 1.45-6 3.09-.67-.82-1.41-1.71-2-2.54 2.7-2.38 5.81-4.51 10-4.51 3.73 0 7 2.81 7 7.74 0 2.71-.06 8.11-.06 10.14 0 .48.06.61.34.61l2.93-.06c0 .89.07 2 0 2.93a26.88 26.88 0 0 1 -6.69.82 19.94 19.94 0 0 1 -1.69-2.19h-.21zm-7.43-3.82c0 1.28 1.28 2.23 2.83 2.23a8.41 8.41 0 0 0 4.53-1.62.5.5 0 0 0 .07-.34v-3.85c-.27 0-1-.07-2-.07-3.81.07-5.43 1.69-5.43 3.65z" fill="#585857"/><path d="m365.28 75.49c0-1 .07-2 .07-2.84 2.16-.26 7.82-1.28 8-1.28.07 0 .07.07.07.14.19 1 .47 2.09.6 2.93l.27.07c4.8-2.93 5.86-3.18 8.05-3.18 2.36 0 4.18 1.83 5.13 3.39a7.23 7.23 0 0 1 1 3.91c0 3.24-.07 7.58-.14 11l2.84.07c0 1 0 2-.06 2.93h-5.62c-1.76 0-3.78.07-5.27.07v-2.92l2.5-.13c.06 0 .13-.07.2-.21v-7.82c0-2.1 0-3.66-.54-4.6a2.66 2.66 0 0 0 -2.7-1.49 10.09 10.09 0 0 0 -5.34 2.36c-.06 3.39-.13 8.59-.13 11.74l2.93.07c0 1-.06 2-.06 2.93h-5.75c-1.75 0-3.79.07-5.47.07 0-1 0-2 .07-2.94l2.7-.13c.07 0 .13-.07.13-.21v-13.79z" fill="#585857"/><path d="m194.56 112.53c.07-1 .07-2 .07-3 3-.07 6.76-.07 10.28-.07a23.88 23.88 0 0 1 7 .74c3.71.88 6.44 4.27 6.44 7.57 0 4.2-2.8 7.24-6.44 8.65v.28c2.32 1 3.51 3.78 6.08 8.44 1.2 2.3 1.62 2.77 2.25 2.84l2.81.2c0 1-.07 2-.07 3-.91 0-2.46 0-3.51.07s-3.73.07-4.57.07c-1.55-2.23-4.36-8.45-5.69-10.82a3.9 3.9 0 0 0 -3.91-2.16c-1.4 0-2 .07-2.18.07l-.07 9.67 3.66.13c0 1-.08 2-.08 3h-12.07c.07-1 .07-2 .07-3l2.88-.13c.06 0 .2-.07.2-.14v-25.14zm8.44 12.71a12.49 12.49 0 0 0 2 .07c5 0 7.1-3.18 7.1-6.22 0-4.12-2.84-6.55-6.69-6.55a7.11 7.11 0 0 0 -2.3.2z" fill="#585857"/><path d="m223.68 131.75c0-6.56 4.47-11.9 11.16-11.9a7.51 7.51 0 0 1 6.08 2.51 10.66 10.66 0 0 1 2.16 6.84 5.17 5.17 0 0 1 -2.09 2.23c-2.16.14-8 .14-11.63.14a6.83 6.83 0 0 0 1.49 4.8c1.28 1.42 2.77 1.61 4.46 1.61a19 19 0 0 0 6.56-1.48 23.17 23.17 0 0 1 .74 3 23.54 23.54 0 0 1 -8.44 2.16c-6.36.07-10.49-3.59-10.49-9.87zm10.49-8.85a3.53 3.53 0 0 0 -3 1.42 7.31 7.31 0 0 0 -1.55 4.4c2.37 0 5.6-.07 7.82-.14a.5.5 0 0 0 .55-.45v-.08a8.07 8.07 0 0 0 -1-3.66 3.62 3.62 0 0 0 -2.83-1.49z" fill="#585857"/><path d="m259.27 138.61c0 .86 0 1.79-.06 2.64h-6.9c-1.71 0-3.91.07-5.55.07 0-1 0-2 .07-2.94l2.7-.13a.2.2 0 0 0 .2-.2c0-4.73 0-9.68-.07-14.35h-3.57s.06-2.07.06-3.08c1-.07 2.16-.07 3.11-.07.21 0 .27-.13.27-.34 0-4.88.74-6.68 2.71-8.8a10 10 0 0 1 7.82-3.57 11.63 11.63 0 0 1 4.05.67 7.15 7.15 0 0 1 -1.89 4.19 13.26 13.26 0 0 0 -3.72-1 2.66 2.66 0 0 0 -2.36 1.14c-.81 1.29-1 2.44-1 7.64 2.16 0 4.6 0 6.69-.07 0 1-.07 2.37-.14 3.91h-6.53s-.06 10.19-.06 14.19z" fill="#585857"/><path d="m264.17 131.75c0-6.56 4.46-11.9 11.15-11.9a7.5 7.5 0 0 1 6.08 2.51 10.73 10.73 0 0 1 2.17 6.84 5.2 5.2 0 0 1 -2.1 2.23c-2.16.14-8 .14-11.62.14a6.77 6.77 0 0 0 1.48 4.8c1.28 1.42 2.77 1.61 4.46 1.61a19 19 0 0 0 6.56-1.48 25 25 0 0 1 .75 3 23.64 23.64 0 0 1 -8.45 2.16c-6.36.07-10.48-3.59-10.48-9.87zm10.41-8.85a3.5 3.5 0 0 0 -3 1.42 7.32 7.32 0 0 0 -1.56 4.4c2.37 0 5.61-.07 7.83-.14a.49.49 0 0 0 .53-.45v-.08a8.06 8.06 0 0 0 -1-3.66 3.47 3.47 0 0 0 -2.84-1.49z" fill="#585857"/><path d="m287.12 124.09c0-1 0-2 .07-2.94 2.1-.27 7.77-1.29 8-1.29s.07.07.07.14c.07 1.62.21 4 .27 6.36l.27.06c2.93-5.61 4.33-6.63 6.56-6.63a8.86 8.86 0 0 1 3.18.62 10.26 10.26 0 0 1 -1.76 5.07 15.29 15.29 0 0 0 -2.78-.41 2.19 2.19 0 0 0 -1.49.61 11.9 11.9 0 0 0 -2.93 4.12 9.61 9.61 0 0 0 -.81 4.26c-.07 1.28-.07 2.93-.07 4.12l4.33.13c0 .88 0 2-.07 2.94h-6.68c-1.83 0-4.06.07-5.82.07 0-1 0-2 .07-2.94l2.57-.07c.07-.06.19-.06.19-.2v-13.89z" fill="#585857"/><path d="m307.29 131.75c0-6.56 4.46-11.9 11.15-11.9a7.52 7.52 0 0 1 6.08 2.51 10.79 10.79 0 0 1 2.17 6.84 5.14 5.14 0 0 1 -2.1 2.23c-2.17.14-8 .14-11.62.14a6.74 6.74 0 0 0 1.49 4.8c1.28 1.42 2.76 1.61 4.45 1.61a19.21 19.21 0 0 0 6.56-1.48 24.94 24.94 0 0 1 .74 3 23.59 23.59 0 0 1 -8.45 2.16c-6.35.07-10.47-3.59-10.47-9.87zm10.4-8.85a3.52 3.52 0 0 0 -3 1.42 7.4 7.4 0 0 0 -1.55 4.4c2.36 0 5.61-.07 7.82-.14a.5.5 0 0 0 .54-.45.11.11 0 0 0 0-.08 8.07 8.07 0 0 0 -1-3.66 3.48 3.48 0 0 0 -2.85-1.49z" fill="#585857"/><path d="m329.43 124.16c0-1 .06-2 .06-2.85 2.17-.26 7.83-1.28 8.05-1.28.07 0 .07.07.07.14.2 1 .47 2.09.61 2.93l.26.07c4.8-2.94 5.87-3.18 8-3.18 2.36 0 4.18 1.83 5.13 3.38a7.25 7.25 0 0 1 1 3.91c0 3.24-.07 7.57-.14 11l2.84.07c0 1 0 2-.07 2.94h-5.63c-1.76 0-3.79.07-5.27.07v-2.94l2.49-.14c.07 0 .14-.06.21-.19v-7.82c0-2.1 0-3.65-.54-4.6a2.64 2.64 0 0 0 -2.71-1.49 10.11 10.11 0 0 0 -5.34 2.37c-.07 3.37-.13 8.58-.13 11.73l2.94.07c0 1-.07 2-.07 2.94h-5.75c-1.75 0-3.79.07-5.48.07 0-1 0-2 .07-2.94l2.71-.14c.07 0 .14-.06.14-.19v-13.78z" fill="#585857"/><path d="m358 132.09c0-6.85 5.13-12.24 12.77-12.24a10.15 10.15 0 0 1 4.89 1.09 7.08 7.08 0 0 1 -2 4 12.69 12.69 0 0 0 -4.59-1.28 4 4 0 0 0 -3.58 1.69 9.47 9.47 0 0 0 -1.69 5.81 7.8 7.8 0 0 0 1.69 5.4 4.83 4.83 0 0 0 3.91 1.49 19.74 19.74 0 0 0 5.81-1.35 18.54 18.54 0 0 1 .67 2.93 19.41 19.41 0 0 1 -8.24 2.16c-5.2-.12-9.59-3.64-9.59-9.77z" fill="#585857"/><path d="m378.66 131.75c0-6.56 4.46-11.9 11.15-11.9a7.52 7.52 0 0 1 6.08 2.51 10.66 10.66 0 0 1 2.16 6.84 5.23 5.23 0 0 1 -2.09 2.23c-2.16.14-8 .14-11.63.14a6.78 6.78 0 0 0 1.49 4.8c1.28 1.42 2.77 1.61 4.46 1.61a19 19 0 0 0 6.56-1.48 23.17 23.17 0 0 1 .74 3 23.59 23.59 0 0 1 -8.45 2.16c-6.35.07-10.47-3.59-10.47-9.87zm10.4-8.85a3.52 3.52 0 0 0 -3 1.42 7.31 7.31 0 0 0 -1.55 4.4c2.36 0 5.61-.07 7.82-.14a.49.49 0 0 0 .54-.45v-.08a7.94 7.94 0 0 0 -1-3.66 3.44 3.44 0 0 0 -2.87-1.49z" fill="#585857"/><path d="m196.83 186.53a.23.23 0 0 0 .21-.21v-24.9l-3.39-.07c0-1 0-2.09.07-3.21h8c4.8 7.13 11.16 16.79 16 24.29l.27-.06c-.07-7-.07-14-.2-20.84h-4.12c0-1.19.07-3.39.07-3.39h6.19c1.69 0 3.51-.06 4.89-.06.07 1 0 2 0 3.06l-2.63.14c-.07 0-.14.07-.14.28l-.21 28.19a11.38 11.38 0 0 1 -4 .67c-4.21-5.72-10.51-14.36-16.4-23.46h-.35c0 6.67-.06 12.62-.06 19.55l4.33.08c0 1-.07 2.22-.07 3.31-2 0-4.46-.08-6.69-.08-1.62 0-3.25.08-4.59.08 0-1 0-2.23.05-3.24z" fill="#585857"/><path d="m227 180.45c0-6.55 4.46-11.89 11.15-11.89a7.51 7.51 0 0 1 6.09 2.49 10.82 10.82 0 0 1 2.16 6.85 5.22 5.22 0 0 1 -2.1 2.24c-2.17.12-8 .12-11.62.12a6.72 6.72 0 0 0 1.49 4.8 5.35 5.35 0 0 0 4.45 1.63 19.22 19.22 0 0 0 6.56-1.49 26.73 26.73 0 0 1 .74 2.93 23 23 0 0 1 -8.45 2.17c-6.42.06-10.48-3.65-10.48-9.87zm10.4-8.8a3.64 3.64 0 0 0 -3 1.42 7.2 7.2 0 0 0 -1.55 4.39c2.36 0 5.6-.07 7.82-.14a.51.51 0 0 0 .54-.45v-.09a8.15 8.15 0 0 0 -1-3.64 3.39 3.39 0 0 0 -2.84-1.49z" fill="#585857"/><path d="m257.54 190.55a4.88 4.88 0 0 1 -3.63-1.36c-1.46-1.24-1.46-2.4-1.46-3.86a54.69 54.69 0 0 1 .68-6.76s.06-5.28.06-6.18h-3.29c0-1 0-2.21.07-3.17l3-.2a.36.36 0 0 0 .32-.35c.07-1.35.13-3.1.27-4.41a30.52 30.52 0 0 1 4.89-2.07c.05 0 .05.06.05.13 0 1.45-.05 4.89-.05 6.7 2.4 0 4.52-.07 6.84-.07 0 1.1-.07 2.41-.14 3.44-2.1 0-4.89-.07-7.31-.07v5c-.06 2.07-.06 4.49-.06 6.85a2.53 2.53 0 0 0 2.36 2.7h.34a19.62 19.62 0 0 0 4.81-.76 22 22 0 0 1 .39 3 21.73 21.73 0 0 1 -8.16 1.53z" fill="#585857"/><path d="m300.75 171.93c-.6 2-1.53 4.68-2.78 8.51-1.13 3.23-2 5.8-3.3 9.22-1.05.07-2.44.07-4.61.07-1.32-4-2.64-8.11-4-12.71h-.81c-1.3 3.51-3.57 8.95-5.07 12.33-1.09.07-2.7.07-4.27.07-1.18-4.06-2-6.85-2.67-9.73-.84-3.25-1.42-5.66-2-7.6a.22.22 0 0 0 -.25-.19l-2-.13c0-.91 0-2 .06-2.86h10.76c0 1 0 2-.07 2.93l-3.11.07c.14 1.16.61 3.45 1.09 6.15s1 5 1.34 6.85l.27.07c1.15-3.32 3.78-10.82 5.14-14.47.54-.06 2.56-.06 4.39-.06 1 3.57 3.18 11.42 4.13 14.66h.25c.68-2.59 1.09-4.22 1.7-6.61s1.17-4.63 1.44-6.33c.06-.14 0-.21-.13-.21l-2.6-.07c.07-1 .07-2.11.07-3h5.36c1.19 0 2.5-.07 3.49-.07a19.21 19.21 0 0 1 -.06 2.84z" fill="#585857"/><path d="m315.27 190.37a10.73 10.73 0 0 1 -7.1-2.36 10.2 10.2 0 0 1 -3.39-8.11 11.42 11.42 0 0 1 4.34-9.13 11.92 11.92 0 0 1 7.22-2.3 10.81 10.81 0 0 1 6.36 1.83 10.13 10.13 0 0 1 4.06 8.65 11.75 11.75 0 0 1 -4.6 9.39 11.15 11.15 0 0 1 -6.89 2.03zm.53-2.83a4 4 0 0 0 3.25-1.43c1.28-1.49 1.75-3.58 1.75-6.89 0-2.84-.47-4.79-1.48-6.09a3.94 3.94 0 0 0 -3.38-1.68 4 4 0 0 0 -3.24 1.49c-1.22 1.42-1.83 3.58-1.83 6.55 0 3.32.61 5.27 1.83 6.62a3.81 3.81 0 0 0 3.1 1.47z" fill="#585857"/><path d="m329 172.77c0-1 0-2 .06-2.93 2.1-.27 7.77-1.28 8-1.28s.07.07.07.13c.07 1.62.21 4 .28 6.35l.26.07c2.93-5.61 4.33-6.62 6.56-6.62a8.64 8.64 0 0 1 3.18.61 10.23 10.23 0 0 1 -1.76 5.06 17.28 17.28 0 0 0 -2.77-.4 2.13 2.13 0 0 0 -1.49.61 11.81 11.81 0 0 0 -2.93 4.12 9.61 9.61 0 0 0 -.81 4.26c-.07 1.28-.07 2.93-.07 4.12l4.33.13c0 .88 0 2-.07 2.93h-6.68c-1.83 0-4.06.07-5.82.07 0-1 0-2 .07-2.93l2.59-.07c.07-.06.2-.06.2-.19v-13.93z" fill="#585857"/><path d="m348.35 160.18c0-.92.07-2 .07-2.81 2.14-.25 8.11-1.23 8.59-1.23.06 0 .13.07.13.2 0 5.72-.07 13.21-.13 20.27.71 0 2-.06 2.8-.13a38.31 38.31 0 0 0 4.29-4.35.13.13 0 0 0 0-.18l-2-.07c0-.91 0-2 .06-2.93h5.81c1.35-.07 2.7-.07 4.06-.07 0 1 0 2-.07 2.93l-2 .14c-2.66 2.39-4.38 3.91-5.92 5.31v.27a13.46 13.46 0 0 1 3.73 4.73 22 22 0 0 0 2.12 3.59 1 1 0 0 0 .8.4l2.66.07c0 .93 0 2-.07 2.93h-7.55a37.5 37.5 0 0 1 -2.7-4.89c-1.15-2.36-2.37-4.18-3.38-4.46-.68 0-1.69 0-2.32.07v6.84l2.45.14c0 1 0 2-.06 3h-5.41c-1.83-.1-3.78 0-5.47 0 0-1 0-2 .07-2.93l2.76-.14c.07 0 .25-.2.25-.2v-26.4z" fill="#585857"/><path d="m379.6 185.86a.89.89 0 0 0 .41.6 5.64 5.64 0 0 0 3 .88 5.21 5.21 0 0 0 2.93-.6 2.42 2.42 0 0 0 1.28-2.16c0-2-1.07-2.3-4.79-3.39-4.12-1.21-6-3-6-5.86a6.32 6.32 0 0 1 3.59-5.41 13.08 13.08 0 0 1 6.22-1.28 13.36 13.36 0 0 1 5.2.8c.26 1.95.4 3.91.6 5.87-1 .13-2.16.33-3.24.47l-.75-2.84c-.06-.21-.13-.47-.26-.54a4.15 4.15 0 0 0 -2.5-.61 4.65 4.65 0 0 0 -2.51.68 2.47 2.47 0 0 0 -1.08 2.16c0 1.56.88 1.89 4.66 3 3.52 1 6.09 2.16 6.09 6a6.43 6.43 0 0 1 -3.58 5.67 15.07 15.07 0 0 1 -6.49 1.22 19.59 19.59 0 0 1 -6.08-.88c-.27-2-.48-4.06-.74-6 1-.28 2.16-.41 3.23-.61z" fill="#585857"/></g><g clip-path="url(#a)"><path d="m115.48 120.54h8.78v8.11h-8.78z" fill="url(#b)"/></g><g clip-path="url(#c)"><path d="m89.13 65.79h16.22v12.16h-16.22z" fill="url(#d)"/></g><g clip-path="url(#e)"><path d="m70.21 68.49h16.22v12.16h-16.22z" fill="url(#f)"/></g><g clip-path="url(#g)"><path d="m131.71 109.72h13.51v15.55h-13.51z" fill="url(#h)"/></g><g clip-path="url(#i)"><path d="m124.27 88.77h14.87v14.19h-14.87z" fill="url(#j)"/></g><g clip-path="url(#k)"><path d="m108.73 73.23h15.55v12.84h-15.55z" fill="url(#l)"/></g><g clip-path="url(#m)"><path d="m79.67 46.19h22.98v14.87h-22.98z" fill="url(#n)"/></g><g clip-path="url(#o)"><path d="m51.96 49.57h23.65v15.55h-23.65z" fill="url(#p)"/></g><g clip-path="url(#q)"><path d="m133.06 77.95h20.27v21.63h-20.27z" fill="url(#r)"/></g><g clip-path="url(#s)"><path d="m108.05 55.66h22.3v17.57h-22.3z" fill="url(#t)"/></g><g clip-path="url(#u)"><path d="m95.89 85.39h8.78v7.43h-8.78z" fill="url(#v)"/></g><g clip-path="url(#w)"><path d="m85.75 86.74h8.78v7.43h-8.78z" fill="url(#x)"/></g><g clip-path="url(#y)"><path d="m118.87 109.05h8.11v8.11h-8.11z" fill="url(#z)"/></g><g clip-path="url(#A)"><path d="m114.81 98.23h8.78v7.43h-8.78z" fill="url(#B)"/></g><g clip-path="url(#C)"><path d="m106.7 89.44h8.78v7.43h-8.78z" fill="url(#D)"/></g><g clip-path="url(#E)"><path d="m146.58 110.4h16.9v25.68h-16.9z" fill="url(#F)"/></g><g clip-path="url(#G)"><path d="m108.05 127.97h8.78v8.11h-8.78z" fill="url(#H)"/></g><g clip-path="url(#I)"><path d="m91.16 146.89h16.22v15.55h-16.22z" fill="url(#J)"/></g><g clip-path="url(#K)"><path d="m112.11 143.51h14.87v15.55h-14.87z" fill="url(#L)"/></g><g clip-path="url(#M)"><path d="m126.3 129.99h14.19v16.22h-14.19z" fill="url(#N)"/></g><g clip-path="url(#O)"><path d="m54.66 80.66h17.57v13.51h-17.57z" fill="url(#P)"/></g><g clip-path="url(#Q)"><path d="m49.25 100.26h17.57v14.87h-17.57z" fill="url(#R)"/></g><g clip-path="url(#S)"><path d="m55.34 121.88h17.57v15.55h-17.57z" fill="url(#T)"/></g><g clip-path="url(#U)"><path d="m70.21 138.78h17.57v15.55h-17.57z" fill="url(#V)"/></g><g clip-path="url(#W)"><path d="m83.05 169.19h23.65v23.65h-23.65z" fill="url(#X)"/></g><g clip-path="url(#Y)"><path d="m112.11 165.13h22.3v24.33h-22.3z" fill="url(#Z)"/></g><g clip-path="url(#aa)"><path d="m137.11 144.19h19.6v25.68h-19.6z" fill="url(#ab)"/></g><g clip-path="url(#ac)"><path d="m27.63 66.46h26.35v19.6h-26.35z" fill="url(#ad)"/></g><g clip-path="url(#ae)"><path d="m16.82 96.2h27.04v24.33h-27.04z" fill="url(#af)"/></g><g clip-path="url(#ag)"><path d="m26.95 131.34h27.04v25h-27.04z" fill="url(#ah)"/></g><g clip-path="url(#ai)"><path d="m51.28 157.7h25.68v24.33h-25.68z" fill="url(#aj)"/></g><g clip-path="url(#ak)"><path d="m97.24 129.32h8.78v8.11h-8.78z" fill="url(#al)"/></g><g clip-path="url(#am)"><path d="m77.64 93.5h9.47v7.43h-9.47z" fill="url(#an)"/></g><g clip-path="url(#ao)"><path d="m74.94 104.31h9.47v8.11h-9.47z" fill="url(#ap)"/></g><g clip-path="url(#aq)"><path d="m78.32 115.8h8.78v8.11h-8.78z" fill="url(#ar)"/></g><g clip-path="url(#as)"><path d="m85.75 125.26h9.47v8.11h-9.47z" fill="url(#at)"/></g><path d="m473 25.92h6.76v190.58h-6.76z" fill="#06adce"/><text fill="#585857" font-family="ArialMT, Arial" font-size="40.55" transform="translate(525.82 107.23)">Genetic</text><text fill="#585857" font-family="ArialMT, Arial" font-size="40.55" letter-spacing="-.02em" transform="translate(665.56 107.23)"/><text fill="#585857" font-family="ArialMT, Arial" font-size="40.55" letter-spacing="-.06em" transform="translate(676.11 107.23)">T</text><text fill="#585857" font-family="ArialMT, Arial" font-size="40.55" transform="translate(699.37 107.23)">umour Risk Syndromes</text><text fill="#585857" font-family="ArialMT, Arial" font-size="40.55" transform="translate(525.82 165.35)">(ERN GENTURIS)</text></svg>